<svg width="512" height="512" viewBox="0 0 512 512" fill="none" xmlns="http://www.w3.org/2000/svg">
<path d="M504.059 366.991C513.434 376.365 513.434 391.549 504.059 400.928L424.066 480.922C420.266 485.682 414.167 487.981 407.967 487.981C401.768 487.981 395.688 485.638 390.998 480.951C381.624 471.577 381.624 456.393 390.998 447.014L430.065 407.988H319.974C313.6 407.988 307.505 405.457 303.006 400.957L182.085 279.998H23.9981C10.7491 279.998 0 269.299 0 256C0 242.701 10.7491 232.002 23.9981 232.002H182.085L302.176 111.912C307.475 106.512 313.575 104.012 319.974 104.012H430.065L391.038 64.9854C381.664 55.6112 381.664 40.4274 391.038 31.0482C400.413 21.6689 415.597 21.6739 424.976 31.0482L504.969 111.042C514.344 120.416 514.344 135.6 504.969 144.979L424.976 224.973C420.266 229.702 414.167 232.002 407.967 232.002C401.768 232.002 395.688 229.658 390.998 224.972C381.624 215.597 381.624 200.414 390.998 191.034L430.065 152.008H329.973L225.982 256L329.973 359.992H430.065L391.038 320.965C381.664 311.591 381.664 296.407 391.038 287.028C400.413 277.648 415.597 277.653 424.976 287.028L504.059 366.991Z" fill="white"/>
</svg>
